<svg width="32" height="33" viewBox="0 0 32 33" fill="none" xmlns="http://www.w3.org/2000/svg">
<path d="M15.1981 0.39284C12.6301 0.42384 7.10906 0.84584 4.02106 3.67884C1.72406 5.95484 0.922058 9.31984 0.828058 13.4808C0.750058 17.6268 0.656058 25.4128 8.16106 27.5328V30.7618C8.16106 30.7618 8.11406 32.0538 8.96806 32.3188C10.0201 32.6518 10.6191 31.6578 11.6191 30.5898L13.4841 28.4808C18.6191 28.9078 22.5521 27.9238 23.0051 27.7778C24.0471 27.4448 29.9161 26.6948 30.8751 18.9078C31.8591 10.8658 30.3961 5.79884 27.7551 3.50684H27.7391C26.9421 2.77284 23.7391 0.43884 16.5831 0.41284C16.5831 0.41284 16.0521 0.37684 15.1981 0.39184V0.39284ZM15.2861 2.65384C16.0151 2.64884 16.4581 2.67984 16.4581 2.67984C22.5151 2.69584 25.4061 4.51884 26.0881 5.13284C28.3121 7.03884 29.4581 11.6068 28.6191 18.3208C27.8221 24.8308 23.0621 25.2428 22.1811 25.5238C21.8061 25.6438 18.3421 26.4978 13.9781 26.2168C13.9781 26.2168 10.7281 30.1388 9.71206 31.1488C9.55106 31.3258 9.36306 31.3778 9.24306 31.3518C9.07106 31.3098 9.01906 31.0968 9.02906 30.8048L9.06006 25.4458C2.69506 23.6858 3.07006 17.0448 3.13806 13.5758C3.21606 10.1068 3.86706 7.26884 5.80506 5.34684C8.41406 2.98784 13.1021 2.66984 15.2841 2.65384H15.2861ZM15.7661 6.12184C15.7137 6.12131 15.6617 6.13116 15.6131 6.15081C15.5646 6.17046 15.5204 6.19953 15.4831 6.23634C15.4458 6.27315 15.4162 6.31698 15.3959 6.36529C15.3757 6.41361 15.3652 6.46545 15.3651 6.51784C15.3651 6.74184 15.5471 6.91884 15.7661 6.91884C16.7576 6.89998 17.743 7.07761 18.6655 7.44147C19.588 7.80532 20.4294 8.34822 21.1411 9.03884C22.5941 10.4498 23.3021 12.3458 23.3291 14.8248C23.3291 15.0438 23.5061 15.2258 23.7301 15.2258V15.2098C23.8356 15.2101 23.937 15.1686 24.0121 15.0945C24.0873 15.0203 24.13 14.9194 24.1311 14.8138C24.1796 13.647 23.9904 12.4825 23.5749 11.391C23.1594 10.2996 22.5263 9.304 21.7141 8.46484C20.1311 6.91784 18.1251 6.12084 15.7661 6.12084V6.12184ZM10.4951 7.03884C10.212 6.99748 9.92333 7.0543 9.67706 7.19984H9.65606C9.08432 7.53498 8.56927 7.95856 8.13006 8.45484C7.76506 8.87684 7.56706 9.30384 7.51506 9.71484C7.48406 9.95984 7.50506 10.2048 7.57806 10.4388L7.60406 10.4548C8.01506 11.6628 8.55206 12.8248 9.20806 13.9188C10.0531 15.4558 11.093 16.8772 12.3021 18.1478L12.3381 18.1998L12.3951 18.2418L12.4311 18.2838L12.4731 18.3198C13.7483 19.5324 15.1731 20.5772 16.7131 21.4288C18.4731 22.3868 19.5411 22.8398 20.1821 23.0278V23.0378C20.3701 23.0948 20.5411 23.1208 20.7131 23.1208C21.2593 23.0808 21.7765 22.859 22.1821 22.4908C22.6761 22.0515 23.0949 21.5344 23.4221 20.9598V20.9498C23.7291 20.3718 23.6251 19.8248 23.1821 19.4548C22.2949 18.6793 21.3355 17.9905 20.3171 17.3978C19.6351 17.0278 18.9421 17.2518 18.6611 17.6268L18.0621 18.3818C17.7551 18.7568 17.1971 18.7048 17.1971 18.7048L17.1811 18.7148C13.0201 17.6518 11.9101 13.4388 11.9101 13.4388C11.9101 13.4388 11.8581 12.8658 12.2431 12.5738L12.9931 11.9698C13.3521 11.6778 13.6021 10.9858 13.2171 10.3028C12.6285 9.28299 11.9412 8.32339 11.1651 7.43784C10.9954 7.22907 10.7574 7.08703 10.4931 7.03684L10.4951 7.03884ZM16.4581 8.22684C15.9271 8.22684 15.9271 9.02884 16.4631 9.02884C17.1233 9.03955 17.775 9.18028 18.3809 9.44297C18.9868 9.70567 19.5349 10.0852 19.9941 10.5598C20.4129 11.0218 20.7347 11.5632 20.9405 12.1519C21.1463 12.7405 21.2318 13.3645 21.1921 13.9868C21.1939 14.0922 21.2369 14.1926 21.3118 14.2666C21.3868 14.3406 21.4877 14.3823 21.5931 14.3828L21.6091 14.4038C21.7152 14.4031 21.8167 14.3606 21.8917 14.2855C21.9668 14.2105 22.0093 14.1089 22.0101 14.0028C22.0461 12.4138 21.5521 11.0808 20.5831 10.0128C19.6091 8.94484 18.2501 8.34584 16.5151 8.22684H16.4581ZM17.1151 10.3828C16.5681 10.3668 16.5471 11.1848 17.0891 11.2008C18.4071 11.2688 19.0471 11.9348 19.1311 13.3048C19.1329 13.4088 19.1754 13.508 19.2494 13.5811C19.3234 13.6541 19.423 13.6953 19.5271 13.6958H19.5431C19.5965 13.6935 19.649 13.6806 19.6974 13.6578C19.7459 13.635 19.7893 13.6028 19.8251 13.5631C19.8609 13.5233 19.8885 13.4768 19.9062 13.4263C19.9239 13.3758 19.9313 13.3223 19.9281 13.2688C19.8341 11.4828 18.8601 10.4768 17.1311 10.3838H17.1151V10.3828Z" fill="#7C7B79"/>
</svg>
